<svg xmlns="http://www.w3.org/2000/svg" xmlns:xlink="http://www.w3.org/1999/xlink" id="Capa_1" x="0px" y="0px" viewBox="0 0 512 512" style="enable-background:new 0 0 512 512;" xml:space="preserve"><style type="text/css">	.st0{fill:#AE2220;}</style><g>	<g>		<path class="st0" d="M437,75C388.7,26.6,324.4,0,256,0S123.3,26.6,75,75C26.6,123.3,0,187.6,0,256s26.6,132.7,75,181   c48.4,48.4,112.6,75,181,75s132.7-26.6,181-75c48.4-48.4,75-112.6,75-181S485.4,123.3,437,75z M256,497C123.1,497,15,388.9,15,256   S123.1,15,256,15s241,108.1,241,241S388.9,497,256,497z"></path>	</g></g><g>	<g>		<path class="st0" d="M415.8,96.2C373.1,53.5,316.4,30,256,30S138.9,53.5,96.2,96.2S30,195.6,30,256c0,28,5.1,55.4,15.1,81.4   c1.5,3.9,5.8,5.8,9.7,4.3c3.9-1.5,5.8-5.8,4.3-9.7c-8.5-21.9-13.1-44.9-14-68.5h79.2c0.7,48.5,8.4,94.8,21.7,134.1   c-10.2,4.9-20,10.4-29.6,16.6c-17.8-15.7-33.1-34.5-45-55.9c-2-3.6-6.6-4.9-10.2-2.9c-3.6,2-4.9,6.6-2.9,10.2   c13.6,24.6,31.5,45.9,52.3,63.4c0.3,0.2,0.5,0.5,0.8,0.7c21.6,18,46.4,31.8,73,40.7c0.6,0.3,1.2,0.5,1.8,0.6   C208.5,478.2,232,482,256,482c60.4,0,117.1-23.5,159.8-66.2S482,316.4,482,256S458.5,138.9,415.8,96.2z M168.4,64.1   c-6.4,11-12.1,23.1-17.2,36.2c-7.7-3.7-15.2-7.9-22.5-12.4C140.9,78.6,154.2,70.6,168.4,64.1z M45.1,248.5   c2.1-59.9,29.3-113.5,71.3-150.6c9.5,6.2,19.4,11.7,29.5,16.6c-13.3,39.3-20.9,85.6-21.7,134.1H45.1z M128.6,424.2   c7.3-4.6,14.8-8.7,22.5-12.4c5.1,13,10.9,25.2,17.2,36.2C154.3,441.5,141,433.5,128.6,424.2z M248.5,466.9   c-19.3-0.7-38.2-4-56.3-9.7c-10.6-14.4-19.8-31.8-27.5-51.5c26.5-10.8,54.7-16.9,83.7-17.8V466.9z M248.5,372.9   c-30.7,0.9-60.7,7.2-88.8,18.6c-12.5-37.4-19.7-81.6-20.4-128h109.2V372.9z M248.5,248.5H139.3c0.7-46.5,7.9-90.6,20.4-128   c28.1,11.4,58.1,17.8,88.8,18.6V248.5z M248.5,124.1c-29-0.9-57.3-6.9-83.7-17.8c7.7-19.7,16.9-37.1,27.5-51.5   c17.8-5.7,36.7-9,56.2-9.7V124.1z M466.9,248.5h-79.2c-0.7-48.5-8.4-94.8-21.7-134.1c10.1-4.8,20-10.4,29.5-16.6   C437.6,135,464.7,188.6,466.9,248.5z M383.3,87.9c-7.3,4.6-14.8,8.7-22.5,12.4c-5.1-13.1-10.9-25.2-17.2-36.2   C357.8,70.6,371.1,78.6,383.3,87.9z M263.5,45.1c19.5,0.7,38.4,4,56.2,9.7c10.6,14.4,19.8,31.8,27.5,51.5   c-26.5,10.8-54.7,16.9-83.7,17.8V45.1z M263.5,139.1c30.7-0.9,60.7-7.2,88.8-18.6c12.5,37.4,19.7,81.6,20.4,128H263.5V139.1z    M263.5,263.5h109.2c-0.7,46.5-7.9,90.6-20.4,128c-28.1-11.4-58.1-17.8-88.8-18.6V263.5z M263.5,466.9v-79   c29,0.9,57.3,6.9,83.7,17.8c-7.7,19.7-16.9,37.1-27.5,51.5C301.9,462.8,283,466.2,263.5,466.9z M343.6,447.9   c6.4-11,12.1-23.1,17.2-36.2c7.7,3.7,15.2,7.9,22.5,12.4C371.1,433.4,357.8,441.4,343.6,447.9z M395.5,414.1   c-9.5-6.2-19.4-11.7-29.5-16.6c13.3-39.3,20.9-85.6,21.7-134.1h79.2C464.7,323.4,437.6,377,395.5,414.1z"></path>	</g></g></svg>