<svg xmlns="http://www.w3.org/2000/svg" xmlns:xlink="http://www.w3.org/1999/xlink" id="Layer_2" x="0px" y="0px" viewBox="0 0 512 501" style="enable-background:new 0 0 512 501;" xml:space="preserve"><style type="text/css">	.st0{fill:#AE2220;}</style><g>	<path class="st0" d="M256,0C114.8,0,0,112.4,0,250.5S114.8,501,256,501s256-112.4,256-250.5S397.2,0,256,0z M256,452.5  c-113.8,0-206.5-90.6-206.5-202s92.6-202,206.5-202s206.5,90.6,206.5,202S369.8,452.5,256,452.5L256,452.5z"></path>	<path class="st0" d="M256,145.5h-49.4c-13.7,0-24.8,10.9-24.8,24.2c0,13.4,11.1,24.2,24.8,24.2h24.6v137.4  c0,13.4,11.1,24.2,24.8,24.2c13.7,0,24.8-10.9,24.8-24.2V169.7C280.8,156.3,269.7,145.5,256,145.5L256,145.5z"></path></g></svg>